<?xml version="1.0" encoding="UTF-8" standalone="no"?>
<svg xmlns="http://www.w3.org/2000/svg" viewBox="0 0 64 64">
  <defs>
    <linearGradient id="gradient" x1="0%" y1="0%" x2="100%" y2="100%">
      <stop offset="0%" stop-color="#7A9978" />
      <stop offset="100%" stop-color="#5A7958" />
    </linearGradient>
  </defs>
  <circle cx="32" cy="32" r="31" fill="white" stroke="url(#gradient)" stroke-width="2" />
  <g fill="url(#gradient)">
    <!-- Center -->
    <circle cx="32" cy="32" r="6" />
    
    <!-- Petals -->
    <path d="M32 26 C 20 15, 22 8, 32 14 C 42 8, 44 15, 32 26 Z" />
    <path d="M38 32 C 49 20, 56 22, 50 32 C 56 42, 49 44, 38 32 Z" />
    <path d="M32 38 C 44 49, 42 56, 32 50 C 22 56, 20 49, 32 38 Z" />
    <path d="M26 32 C 15 44, 8 42, 14 32 C 8 22, 15 20, 26 32 Z" />
  </g>
</svg>
